<svg xmlns="http://www.w3.org/2000/svg" viewBox="0 0 440 340" width="440" height="340">
  <defs>
    <filter id="neonText" x="-30%" y="-30%" width="160%" height="160%">
      <feGaussianBlur in="SourceGraphic" stdDeviation="6" result="glow"/>
      <feGaussianBlur in="SourceGraphic" stdDeviation="2" result="sharp"/>
      <feMerge>
        <feMergeNode in="glow"/>
        <feMergeNode in="sharp"/>
        <feMergeNode in="SourceGraphic"/>
      </feMerge>
    </filter>
    <filter id="neonThumb" x="-15%" y="-15%" width="130%" height="130%">
      <feGaussianBlur in="SourceGraphic" stdDeviation="3" result="blur1"/>
      <feGaussianBlur in="SourceGraphic" stdDeviation="8" result="blur2"/>
      <feMerge>
        <feMergeNode in="blur2"/>
        <feMergeNode in="blur1"/>
        <feMergeNode in="SourceGraphic"/>
      </feMerge>
    </filter>
  </defs>

  <!-- Dark panel for neon contrast -->
  <rect x="4" y="4" width="432" height="332" rx="16" fill="#0a0a1a"/>


  <!-- DON'T pixel text (top, centered) — neon magenta with glow -->
  <!-- D(30)+12+O(36)+12+N(30)+8+'(7)+8+T(30) = 173. Center in 440: x=133 -->
  <g fill="#ff0033" filter="url(#neonText)" transform="translate(133,10)">
    <!-- D -->
    <rect x="0" y="0" width="6" height="42"/>
    <rect x="6" y="0" width="12" height="6"/>
    <rect x="18" y="6" width="6" height="6"/>
    <rect x="24" y="12" width="6" height="18"/>
    <rect x="18" y="30" width="6" height="6"/>
    <rect x="6" y="36" width="12" height="6"/>

    <!-- O (+42) — round with inset corners -->
    <rect x="54" y="0" width="12" height="6"/>
    <rect x="48" y="6" width="6" height="6"/>
    <rect x="66" y="6" width="6" height="6"/>
    <rect x="42" y="12" width="6" height="18"/>
    <rect x="72" y="12" width="6" height="18"/>
    <rect x="48" y="30" width="6" height="6"/>
    <rect x="66" y="30" width="6" height="6"/>
    <rect x="54" y="36" width="12" height="6"/>

    <!-- N (+84) -->
    <rect x="84" y="0" width="6" height="42"/>
    <rect x="90" y="6" width="6" height="6"/>
    <rect x="96" y="12" width="6" height="6"/>
    <rect x="102" y="18" width="6" height="6"/>
    <rect x="108" y="0" width="6" height="42"/>

    <!-- ' (+122) -->
    <rect x="124" y="0" width="5" height="6"/>
    <rect x="122" y="6" width="5" height="6"/>

    <!-- T (+133) -->
    <rect x="133" y="0" width="30" height="6"/>
    <rect x="145" y="6" width="6" height="36"/>
  </g>

  <!-- Hitchhiker's thumb logo (center, white with glow) -->
  <g transform="translate(124,240) scale(0.024,-0.024)" fill="#ffffff" filter="url(#neonThumb)">
    <path d="M3915 7234 c-16 -2 -77 -9 -135 -15 -546 -57 -1094 -262 -1563 -583
-66 -45 -125 -85 -132 -90 -14 -11 -32 -4 -252 98 -342 158 -691 272 -950 311
-125 19 -337 19 -426 0 -364 -77 -468 -398 -298 -913 22 -64 58 -160 81 -212
61 -140 204 -410 275 -520 12 -19 51 -80 86 -135 76 -120 237 -353 249 -360 5
-3 21 34 35 82 31 102 49 153 76 208 10 22 19 43 19 47 0 4 -34 59 -75 123
-267 411 -407 751 -407 984 0 161 50 254 165 310 175 85 476 48 892 -110 126
-47 253 -103 266 -116 6 -6 -22 -41 -82 -99 -268 -262 -494 -574 -671 -926
l-79 -159 22 -37 c13 -20 66 -95 118 -167 516 -706 1321 -1547 2228 -2329
l103 -88 24 19 c96 73 226 191 226 204 0 5 11 25 25 45 14 20 36 72 50 116 32
100 35 257 7 328 -20 54 -53 110 -64 110 -4 0 -20 19 -35 43 -57 87 -186 237
-341 394 -34 35 -72 79 -85 97 -12 18 -59 88 -105 156 -115 169 -172 286 -183
374 -20 151 -39 215 -79 264 -52 65 -155 170 -215 218 -56 45 -180 127 -260
170 -16 9 -50 33 -75 53 l-44 36 -236 5 c-231 5 -236 6 -287 32 -28 15 -60 39
-72 54 -23 29 -28 85 -12 128 17 42 137 160 254 248 218 165 305 193 566 186
131 -3 138 -5 201 -37 67 -35 197 -121 235 -156 23 -21 46 -39 135 -105 75
-55 161 -133 306 -277 68 -67 147 -139 176 -161 52 -39 110 -97 178 -182 101
-125 211 -237 252 -257 23 -11 102 -40 173 -62 163 -53 461 -198 570 -279 120
-88 320 -302 404 -432 20 -30 48 -71 62 -90 47 -62 162 -310 237 -510 25 -66
59 -190 67 -245 4 -22 13 -60 20 -85 7 -25 13 -54 13 -65 0 -11 6 -69 12 -130
15 -142 7 -420 -15 -495 -8 -30 -20 -89 -26 -130 -5 -41 -18 -102 -29 -135
-10 -33 -22 -75 -25 -94 -8 -39 -28 -85 -102 -241 -52 -108 -93 -173 -170
-273 -54 -69 -60 -85 -37 -101 105 -78 796 -476 825 -476 4 0 49 28 100 61
348 229 664 532 909 872 34 48 67 86 73 84 12 -4 191 -300 250 -415 67 -129
133 -297 163 -412 23 -88 26 -117 22 -218 -3 -102 -7 -123 -30 -167 -49 -94
-136 -148 -269 -167 -231 -33 -658 84 -1101 302 l-100 50 -86 -47 c-48 -25
-99 -54 -113 -64 -14 -10 -44 -25 -67 -35 -24 -9 -41 -21 -40 -26 4 -12 219
-123 413 -212 281 -129 550 -227 787 -285 471 -116 789 -62 930 159 188 293 3
902 -505 1663 l-98 148 54 107 c189 369 319 821 358 1242 16 175 14 527 -5
698 -57 522 -231 1028 -505 1466 -512 817 -1324 1381 -2261 1570 -233 47 -350
58 -640 61 -151 2 -288 1 -305 -1z m2182 -1232 c53 -27 148 -116 238 -223 95
-112 111 -145 119 -246 7 -77 5 -86 -24 -157 -28 -66 -41 -83 -100 -133 -37
-32 -133 -117 -211 -188 -79 -72 -155 -138 -169 -146 -26 -17 -150 -123 -334
-287 -145 -130 -153 -134 -257 -140 l-86 -5 -70 41 c-122 71 -242 188 -298
290 -69 123 -75 313 -13 405 86 129 110 159 173 222 63 63 195 178 369 320 34
28 72 60 86 72 112 96 143 119 200 145 130 61 292 73 377 30z m548 -852 c74
-39 106 -63 179 -136 75 -74 102 -111 152 -210 35 -70 39 -85 39 -153 0 -70
-4 -84 -46 -171 -58 -119 -144 -220 -274 -320 -53 -41 -114 -88 -135 -105 -20
-16 -56 -43 -81 -60 -21 -16 -62 -46 -90 -65 -28 -19
-73 -51 -99 -70 -57 -43 -72 -52 -136 -84 -160 -80 -221 -88 -295 -42 -71 45
-182 131 -210 162 -44 49 -90 112 -100 136 -5 13 -14 30 -19 38 -60 102 -66
164 -26 254 30 68 157 199 345 356 69 57 152 131 185 165 33 33 96 92 140 130
44 38 101 89 126 113 26 24 56 49 66 56 11 6 40 24 64 40 93 63 205 73 294 26z
m247 -1183 c154 -76 285 -250 322 -431 21 -103 20 -122 -8 -210 -33 -100 -34
-102 -127 -207 -84 -96 -238 -230 -317 -276 -174 -103 -340 -119 -510 -50 -96
39 -165 101 -249 225 -89 131 -117 282 -74 400 23 63 87 149 139 188 41 30 42
31 125 104 87 76 315 222 415 265 79 34 206 30 284 -8z"/>
    <path d="M836 4728 c-215 -752 -170 -1561 127 -2284 170 -414 427 -803 737
-1114 155 -156 215 -210 235 -210 8 0 43 27 77 59 35 33 81 74 103 91 22 17
42 35 45 38 3 4 23 21 45 37 90 67 305 268 558 521 148 148 299 298 335 334
73 71 112 116 112 128 0 5 -55 55 -122 113 -255 217 -451 398 -773 710 -537
522 -993 1029 -1356 1509 -49 66 -94 120 -99 120 -5 0 -15 -24 -24 -52z"/>
    <path d="M4774 912 c-78 -81 -172 -181 -210 -222 -38 -41 -114 -122 -169 -181
-151 -159 -195 -207 -195 -213 0 -19 362 10 565 44 223 38 450 102 686 193
142 55 204 86 193 96 -5 4 -106 63 -223 130 -118 68 -267 156 -331 196 -64 40
-130 80 -146 88 l-30 15 -140 -146z"/>
  </g>

  <!-- PANIC pixel text (bottom, centered) — neon magenta with glow -->
  <!-- P(30)+12+A(30)+12+N(30)+12+I(18)+12+C(30) = 186. Center in 440: x=127 -->
  <g fill="#ff0033" filter="url(#neonText)" transform="translate(127,280)">
    <!-- P -->
    <rect x="0" y="0" width="6" height="42"/>
    <rect x="6" y="0" width="18" height="6"/>
    <rect x="24" y="6" width="6" height="12"/>
    <rect x="6" y="18" width="18" height="6"/>

    <!-- A (+42) -->
    <rect x="48" y="0" width="18" height="6"/>
    <rect x="42" y="6" width="6" height="36"/>
    <rect x="66" y="6" width="6" height="36"/>
    <rect x="48" y="18" width="18" height="6"/>

    <!-- N (+84) -->
    <rect x="84" y="0" width="6" height="42"/>
    <rect x="90" y="6" width="6" height="6"/>
    <rect x="96" y="12" width="6" height="6"/>
    <rect x="102" y="18" width="6" height="6"/>
    <rect x="108" y="0" width="6" height="42"/>

    <!-- I (+126) -->
    <rect x="126" y="0" width="18" height="6"/>
    <rect x="132" y="6" width="6" height="30"/>
    <rect x="126" y="36" width="18" height="6"/>

    <!-- C (+156) -->
    <rect x="162" y="0" width="24" height="6"/>
    <rect x="156" y="6" width="6" height="30"/>
    <rect x="162" y="36" width="24" height="6"/>
  </g>
</svg>
